/* XPM */
static char *buttonpressed[] = {
/* columns rows colors chars-per-pixel */
"20 20 3 1 ",
"  c #000000",
". c #323131",
"X c #4F79BF",
/* pixels */
"                    ",
"                    ",
"  ................  ",
"  ................  ",
"  ................  ",
"  ................  ",
"  ................  ",
"  ................  ",
"  ................  ",
"  ................  ",
"  ................  ",
"  ................  ",
"  ....XXXXXXXX....  ",
"  ....XXXXXXXX....  ",
"  ................  ",
"  ................  ",
"  ................  ",
"  ................  ",
"                    ",
"                    "
};
