/* XPM */
static char *entryfocus[] = {
/* columns rows colors chars-per-pixel */
"10 10 3 1 ",
"  c #000000",
". c #4F79BF",
"X c None",
/* pixels */
"          ",
"          ",
"  ......  ",
"  ......  ",
"  ..XX..  ",
"  ..XX..  ",
"  ......  ",
"  ......  ",
"          ",
"          "
};
