/* XPM */
static char *entry[] = {
/* columns rows colors chars-per-pixel */
"6 6 2 1 ",
"  c #000000",
". c #4F79BF",
/* pixels */
"      ",
"      ",
"  ..  ",
"  ..  ",
"      ",
"      "
};
