/* XPM */
static char *tabbottom[] = {
/* columns rows colors chars-per-pixel */
"20 12 2 1 ",
"  c #4F79BF",
". c None",
/* pixels */
"....................",
"....................",
"....................",
"....................",
"....................",
"....................",
"......        ......",
"......        ......",
"......        ......",
"......        ......",
"....................",
"...................."
};
