/* XPM */
static char *close_inactive[] = {
/* columns rows colors chars-per-pixel */
"32 22 2 1 ",
"  c #000000",
". c #3B3A3A",
/* pixels */
"............................... ",
"............................... ",
"............................... ",
"............................... ",
"............................... ",
"............................... ",
"............................... ",
"............................... ",
"............................... ",
"............................... ",
"............................... ",
"............................... ",
"............................... ",
"............................... ",
"............................... ",
"............................... ",
"............................... ",
"............................... ",
"............................... ",
"............................... ",
"............................... ",
"............................... "
};
