/* XPM */
static char *maximize_toggled_inactive[] = {
/* columns rows colors chars-per-pixel */
"32 22 4 1 ",
"  c #000000",
". c #3B3A3A",
"X c #656666",
"o c #656666",
/* pixels */
"............................... ",
"............................... ",
"............................... ",
"............................... ",
"............................... ",
"............................... ",
"............................... ",
"............oooooooo........... ",
"............oooooooo........... ",
"............oo....oo........... ",
"............oo....oo........... ",
"............oo....oo........... ",
"............oo....oo........... ",
"............oooooooo........... ",
"............oooooooo........... ",
"............................... ",
"............................... ",
"............................... ",
"............................... ",
"..XXXXXXXXXXXXXXXXXXXXXXXXXXX.. ",
"............................... ",
"............................... "
};
