/* XPM */
static char *maximize_toggled_pressed[] = {
/* columns rows colors chars-per-pixel */
"32 22 4 1 ",
"  c #000000",
". c #313131",
"X c #ff00ff s active_color_1",
"o c #F1F2F2",
/* pixels */
"............................... ",
"............................... ",
"............................... ",
"............................... ",
"............................... ",
"............................... ",
"............................... ",
"............oooooooo........... ",
"............oooooooo........... ",
"............oo....oo........... ",
"............oo....oo........... ",
"............oo....oo........... ",
"............oo....oo........... ",
"............oooooooo........... ",
"............oooooooo........... ",
"............................... ",
"............................... ",
"............................... ",
"............................... ",
"..XXXXXXXXXXXXXXXXXXXXXXXXXXXX. ",
"............................... ",
"............................... "
};
