/* XPM */
static char *menu_inactive[] = {
/* columns rows colors chars-per-pixel */
"32 22 3 1 ",
"  c #000000",
". c #3B3A3A",
"X c #656666",
/* pixels */
"............................... ",
"............................... ",
"............................... ",
"............................... ",
"............................... ",
"............................... ",
"............................... ",
"............XXXXXXXX........... ",
"............XXXXXXXX........... ",
"............................... ",
"............XXXXXXXX........... ",
"............XXXXXXXX........... ",
"............................... ",
"............XXXXXXXX........... ",
"............XXXXXXXX........... ",
"............................... ",
"............................... ",
"............................... ",
"............................... ",
"............................... ",
"............................... ",
"............................... "
};
