/* XPM */
static char *stick_toggled_inactive[] = {
/* columns rows colors chars-per-pixel */
"32 22 4 1 ",
"  c #656666",
". c #000000",
"X c #3B3A3A",
"o c #656666",
/* pixels */
"XXXXXXXXXXXXXXXXXXXXXXXXXXXXXXX.",
"XXXXXXXXXXXXXXXXXXXXXXXXXXXXXXX.",
"XXXXXXXXXXXXXXXXXXXXXXXXXXXXXXX.",
"XXXXXXXXXXXXXXXXXXXXXXXXXXXXXXX.",
"XXXXXXXXXXXXXXXXXXXXXXXXXXXXXXX.",
"XXXXXXXXXXXXXXXXXXXXXXXXXXXXXXX.",
"XXXXXXXXXXXXXXXXXXXXXXXXXXXXXXX.",
"XXXXXXXXXXXXXooooooXXXXXXXXXXXX.",
"XXXXXXXXXXXXXooooooXXXXXXXXXXXX.",
"XXXXXXXXXXXXXooooooXXXXXXXXXXXX.",
"XXXXXXXXXXXXooooooooXXXXXXXXXXX.",
"XXXXXXXXXXXXooooooooXXXXXXXXXXX.",
"XXXXXXXXXXXXXXXooXXXXXXXXXXXXXX.",
"XXXXXXXXXXXXXXXooXXXXXXXXXXXXXX.",
"XXXXXXXXXXXXXXXooXXXXXXXXXXXXXX.",
"XXXXXXXXXXXXXXXXXXXXXXXXXXXXXXX.",
"XXXXXXXXXXXXXXXXXXXXXXXXXXXXXXX.",
"XXXXXXXXXXXXXXXXXXXXXXXXXXXXXXX.",
"XXXXXXXXXXXXXXXXXXXXXXXXXXXXXXX.",
"XX                           XX.",
"XXXXXXXXXXXXXXXXXXXXXXXXXXXXXXX.",
"XXXXXXXXXXXXXXXXXXXXXXXXXXXXXXX."
};
