/* XPM */
static char *stick_active[] = {
/* columns rows colors chars-per-pixel */
"32 22 3 1 ",
"  c #000000",
". c #313131",
"X c #F1F2F2",
/* pixels */
"............................... ",
"............................... ",
"............................... ",
"............................... ",
"............................... ",
"............................... ",
"............................... ",
".............XXXXXX............ ",
".............XXXXXX............ ",
".............XXXXXX............ ",
"............XXXXXXXX........... ",
"............XXXXXXXX........... ",
"...............XX.............. ",
"...............XX.............. ",
"...............XX.............. ",
"............................... ",
"............................... ",
"............................... ",
"............................... ",
"............................... ",
"............................... ",
"............................... "
};
