/* XPM */
static char *close_active[] = {
/* columns rows colors chars-per-pixel */
"64 44 2 1 ",
"  c #000000",
". c #323131",
/* pixels */
"  ..............................................................",
"  ..............................................................",
"  ..............................................................",
"  ..............................................................",
"  ..............................................................",
"  ..............................................................",
"  ..............................................................",
"  ..............................................................",
"  ..............................................................",
"  ..............................................................",
"  ..............................................................",
"  ..............................................................",
"  ..............................................................",
"  ..............................................................",
"  ..............................................................",
"  ..............................................................",
"  ..............................................................",
"  ..............................................................",
"  ..............................................................",
"  ..............................................................",
"  ..............................................................",
"  ..............................................................",
"  ..............................................................",
"  ..............................................................",
"  ..............................................................",
"  ..............................................................",
"  ..............................................................",
"  ..............................................................",
"  ..............................................................",
"  ..............................................................",
"  ..............................................................",
"  ..............................................................",
"  ..............................................................",
"  ..............................................................",
"  ..............................................................",
"  ..............................................................",
"  ..............................................................",
"  ..............................................................",
"  ..............................................................",
"  ..............................................................",
"  ..............................................................",
"  ..............................................................",
"  ..............................................................",
"  .............................................................."
};
