/* XPM */
static char *close_pressed[] = {
/* columns rows colors chars-per-pixel */
"64 44 3 1 ",
"  c #000000",
". c #323131",
"X c #ff00ff s active_color_1",
/* pixels */
"  ..............................................................",
"  ..............................................................",
"  ..............................................................",
"  ..............................................................",
"  ..............................................................",
"  ..............................................................",
"  ..............................................................",
"  ..............................................................",
"  ..............................................................",
"  ..............................................................",
"  ..............................................................",
"  ..............................................................",
"  ..............................................................",
"  ..............................................................",
"  ..............................................................",
"  ..............................................................",
"  ..............................................................",
"  ..............................................................",
"  ..............................................................",
"  ..............................................................",
"  ..............................................................",
"  ..............................................................",
"  ..............................................................",
"  ..............................................................",
"  ..............................................................",
"  ..............................................................",
"  ..............................................................",
"  ..............................................................",
"  ..............................................................",
"  ..............................................................",
"  ..............................................................",
"  ..............................................................",
"  ..............................................................",
"  ..............................................................",
"  ..............................................................",
"  ..............................................................",
"  ..............................................................",
"  ..............................................................",
"  ....XXXXXXXXXXXXXXXXXXXXXXXXXXXXXXXXXXXXXXXXXXXXXXXXXXXXXX....",
"  ....XXXXXXXXXXXXXXXXXXXXXXXXXXXXXXXXXXXXXXXXXXXXXXXXXXXXXX....",
"  ..............................................................",
"  ..............................................................",
"  ..............................................................",
"  .............................................................."
};
