/* XPM */
static char *hide_pressed[] = {
/* columns rows colors chars-per-pixel */
"64 44 4 1 ",
"  c #000000",
". c #323131",
"X c #ff00ff s active_color_1",
"o c #F1F2F2",
/* pixels */
"  ..............................................................",
"  ..............................................................",
"  ..............................................................",
"  ..............................................................",
"  ..............................................................",
"  ..............................................................",
"  ..............................................................",
"  ..............................................................",
"  ..............................................................",
"  ..............................................................",
"  ..............................................................",
"  ..............................................................",
"  ..............................................................",
"  ..............................................................",
"  ..............................................................",
"  ..............................................................",
"  ..............................................................",
"  ..............................................................",
"  ..............................................................",
"  ..............................................................",
"  ..............................................................",
"  ..............................................................",
"  ..............................................................",
"  ..............................................................",
"  ..............................................................",
"  ..............................................................",
"  ......................oooooooooooooooo........................",
"  ......................oooooooooooooooo........................",
"  ......................oooooooooooooooo........................",
"  ......................oooooooooooooooo........................",
"  ..............................................................",
"  ..............................................................",
"  ..............................................................",
"  ..............................................................",
"  ..............................................................",
"  ..............................................................",
"  ..............................................................",
"  ..............................................................",
"  ....XXXXXXXXXXXXXXXXXXXXXXXXXXXXXXXXXXXXXXXXXXXXXXXXXXXXXX....",
"  ....XXXXXXXXXXXXXXXXXXXXXXXXXXXXXXXXXXXXXXXXXXXXXXXXXXXXXX....",
"  ..............................................................",
"  ..............................................................",
"  ..............................................................",
"  .............................................................."
};
