/* XPM */
static char *top_right_active[] = {
/* columns rows colors chars-per-pixel */
"10 48 2 1 ",
"  c #000000",
". c #3B3A3A",
/* pixels */
"          ",
"          ",
"........  ",
"........  ",
"........  ",
"........  ",
"........  ",
"........  ",
"........  ",
"........  ",
"........  ",
"........  ",
"........  ",
"........  ",
"........  ",
"........  ",
"........  ",
"........  ",
"........  ",
"........  ",
"........  ",
"........  ",
"........  ",
"........  ",
"........  ",
"........  ",
"........  ",
"........  ",
"........  ",
"........  ",
"........  ",
"........  ",
"........  ",
"........  ",
"........  ",
"........  ",
"........  ",
"........  ",
"........  ",
"........  ",
"........  ",
"........  ",
"........  ",
"........  ",
"........  ",
"........  ",
"          ",
"          "
};
