/* XPM */
static char *title_1_active[] = {
/* columns rows colors chars-per-pixel */
"2 48 2 1 ",
"  c #000000",
". c #3B3A3A",
/* pixels */
"  ",
"  ",
"..",
"..",
"..",
"..",
"..",
"..",
"..",
"..",
"..",
"..",
"..",
"..",
"..",
"..",
"..",
"..",
"..",
"..",
"..",
"..",
"..",
"..",
"..",
"..",
"..",
"..",
"..",
"..",
"..",
"..",
"..",
"..",
"..",
"..",
"..",
"..",
"..",
"..",
"..",
"..",
"..",
"..",
"..",
"..",
"  ",
"  "
};
