/* XPM */
static char *maximize_active[] = {
/* columns rows colors chars-per-pixel */
"64 44 3 1 ",
"  c #000000",
". c #313131",
"X c #F1F2F2",
/* pixels */
"..............................................................  ",
"..............................................................  ",
"..............................................................  ",
"..............................................................  ",
"..............................................................  ",
"..............................................................  ",
"..............................................................  ",
"..............................................................  ",
"..............................................................  ",
"..............................................................  ",
"..............................................................  ",
"..............................................................  ",
"..............................................................  ",
"..............................................................  ",
"........................XXXXXXXXXXXXXXXX......................  ",
"........................XXXXXXXXXXXXXXXX......................  ",
"........................XXXXXXXXXXXXXXXX......................  ",
"........................XXXXXXXXXXXXXXXX......................  ",
"........................XXXX........XXXX......................  ",
"........................XXXX........XXXX......................  ",
"........................XXXX........XXXX......................  ",
"........................XXXX........XXXX......................  ",
"........................XXXX........XXXX......................  ",
"........................XXXX........XXXX......................  ",
"........................XXXX........XXXX......................  ",
"........................XXXX........XXXX......................  ",
"........................XXXXXXXXXXXXXXXX......................  ",
"........................XXXXXXXXXXXXXXXX......................  ",
"........................XXXXXXXXXXXXXXXX......................  ",
"........................XXXXXXXXXXXXXXXX......................  ",
"..............................................................  ",
"..............................................................  ",
"..............................................................  ",
"..............................................................  ",
"..............................................................  ",
"..............................................................  ",
"..............................................................  ",
"..............................................................  ",
"..............................................................  ",
"..............................................................  ",
"..............................................................  ",
"..............................................................  ",
"..............................................................  ",
"..............................................................  "
};
