/* XPM */
static char *shade_toggled_inactive[] = {
/* columns rows colors chars-per-pixel */
"64 44 3 1 ",
"  c #000000",
". c #3B3A3A",
"X c #656666",
/* pixels */
"..............................................................  ",
"..............................................................  ",
"..............................................................  ",
"..............................................................  ",
"..............................................................  ",
"..............................................................  ",
"..............................................................  ",
"..............................................................  ",
"..............................................................  ",
"..............................................................  ",
"..............................................................  ",
"..............................................................  ",
"..............................................................  ",
"..............................................................  ",
"........................XXXXXXXXXXXXXXXX......................  ",
"........................XXXXXXXXXXXXXXXX......................  ",
"........................XXXXXXXXXXXXXXXX......................  ",
"........................XXXXXXXXXXXXXXXX......................  ",
"..............................................................  ",
"..............................................................  ",
"..............................................................  ",
"..............................................................  ",
"..............................................................  ",
"..............................................................  ",
"..............................................................  ",
"..............................................................  ",
"..............................................................  ",
"..............................................................  ",
"..............................................................  ",
"..............................................................  ",
"..............................................................  ",
"..............................................................  ",
"..............................................................  ",
"..............................................................  ",
"..............................................................  ",
"..............................................................  ",
"..............................................................  ",
"..............................................................  ",
"....XXXXXXXXXXXXXXXXXXXXXXXXXXXXXXXXXXXXXXXXXXXXXXXXXXXXXX....  ",
"....XXXXXXXXXXXXXXXXXXXXXXXXXXXXXXXXXXXXXXXXXXXXXXXXXXXXXX....  ",
"..............................................................  ",
"..............................................................  ",
"..............................................................  ",
"..............................................................  "
};
