/* XPM */
static char *stick_pressed[] = {
/* columns rows colors chars-per-pixel */
"64 44 4 1 ",
"  c #000000",
". c #313131",
"X c #ff00ff s active_color_1",
"o c #F1F2F2",
/* pixels */
"..............................................................  ",
"..............................................................  ",
"..............................................................  ",
"..............................................................  ",
"..............................................................  ",
"..............................................................  ",
"..............................................................  ",
"..............................................................  ",
"..............................................................  ",
"..............................................................  ",
"..............................................................  ",
"..............................................................  ",
"..............................................................  ",
"..............................................................  ",
"..........................oooooooooooo........................  ",
"..........................oooooooooooo........................  ",
"..........................oooooooooooo........................  ",
"..........................oooooooooooo........................  ",
"..........................oooooooooooo........................  ",
"..........................oooooooooooo........................  ",
"........................oooooooooooooooo......................  ",
"........................oooooooooooooooo......................  ",
"........................oooooooooooooooo......................  ",
"........................oooooooooooooooo......................  ",
"..............................oooo............................  ",
"..............................oooo............................  ",
"..............................oooo............................  ",
"..............................oooo............................  ",
"..............................oooo............................  ",
"..............................oooo............................  ",
"..............................................................  ",
"..............................................................  ",
"..............................................................  ",
"..............................................................  ",
"..............................................................  ",
"..............................................................  ",
"..............................................................  ",
"..............................................................  ",
"....XXXXXXXXXXXXXXXXXXXXXXXXXXXXXXXXXXXXXXXXXXXXXXXXXXXXXX....  ",
"....XXXXXXXXXXXXXXXXXXXXXXXXXXXXXXXXXXXXXXXXXXXXXXXXXXXXXX....  ",
"..............................................................  ",
"..............................................................  ",
"..............................................................  ",
"..............................................................  "
};
