/* XPM */
static char *stick_active[] = {
/* columns rows colors chars-per-pixel */
"64 44 3 1 ",
"  c #000000",
". c #313131",
"X c #F1F2F2",
/* pixels */
"..............................................................  ",
"..............................................................  ",
"..............................................................  ",
"..............................................................  ",
"..............................................................  ",
"..............................................................  ",
"..............................................................  ",
"..............................................................  ",
"..............................................................  ",
"..............................................................  ",
"..............................................................  ",
"..............................................................  ",
"..............................................................  ",
"..............................................................  ",
"..........................XXXXXXXXXXXX........................  ",
"..........................XXXXXXXXXXXX........................  ",
"..........................XXXXXXXXXXXX........................  ",
"..........................XXXXXXXXXXXX........................  ",
"..........................XXXXXXXXXXXX........................  ",
"..........................XXXXXXXXXXXX........................  ",
"........................XXXXXXXXXXXXXXXX......................  ",
"........................XXXXXXXXXXXXXXXX......................  ",
"........................XXXXXXXXXXXXXXXX......................  ",
"........................XXXXXXXXXXXXXXXX......................  ",
"..............................XXXX............................  ",
"..............................XXXX............................  ",
"..............................XXXX............................  ",
"..............................XXXX............................  ",
"..............................XXXX............................  ",
"..............................XXXX............................  ",
"..............................................................  ",
"..............................................................  ",
"..............................................................  ",
"..............................................................  ",
"..............................................................  ",
"..............................................................  ",
"..............................................................  ",
"..............................................................  ",
"..............................................................  ",
"..............................................................  ",
"..............................................................  ",
"..............................................................  ",
"..............................................................  ",
"..............................................................  "
};
