/* XPM */
static char * top_right_inactive_xpm[] = {
"7 31 3 1",
"+	c #FF00FF s active_color_2",
".	c #0000FF s inactive_shadow_2",
"-	c #000000",
".......",
"++++++.",
"++++++.",
"++++++.",
"++++++.",
"++++++.",
"++++++.",
"++++++.",
"++++++.",
"++++++.",
"++++++.",
"++++++.",
"++++++.",
"++++++.",
"++++++.",
"++++++.",
"++++++.",
"++++++.",
"++++++.",
"++++++.",
"++++++.",
"++++++.",
"++++++.",
"++++++.",
"++++++.",
"++++++.",
"++++++.",
"++++++.",
"++++++.",
"++++++.",
"------."};
