/* XPM */
static char * close_active_xpm[] = {
"90 58 3 1",
".	c #FF00FF s active_color_1",
"+	c #00FF00 s active_text_color",
"@	c #FF0000 s active_text_color",
"..........................................................................................",
"..........................................................................................",
"..........................................................................................",
"..........................................................................................",
"..........................................................................................",
"..........................................................................................",
"..........................................................................................",
"..........................................................................................",
"..........................................................................................",
"..........................................................................................",
"..........................................................................................",
"..........................................................................................",
"..........................................................................................",
"..........................................................................................",
"..........................................................................................",
"..........................................................................................",
"..................................++................++....................................",
"..................................++................++....................................",
"................................++@@++............++@@++..................................",
"................................++@@@+............+@@@++..................................",
"..................................+@@@++........++@@@+....................................",
"..................................++@@@+........+@@@++....................................",
"....................................+@@@++....++@@@+......................................",
"....................................++@@@+....+@@@++......................................",
"......................................+@@@++++@@@+........................................",
"......................................++@@@++@@@++........................................",
"........................................+@@@@@@+..........................................",
"........................................++@@@@++..........................................",
"........................................++@@@@++..........................................",
"........................................+@@@@@@+..........................................",
"......................................++@@@++@@@++........................................",
"......................................+@@@++++@@@+........................................",
"....................................++@@@+....+@@@++......................................",
"....................................+@@@++....++@@@+......................................",
"..................................++@@@+........+@@@++....................................",
"..................................+@@@++........++@@@+....................................",
"................................++@@@+............+@@@++..................................",
"................................++@@++............++@@++..................................",
"..................................++................++....................................",
"..................................++................++....................................",
"..........................................................................................",
"..........................................................................................",
"..........................................................................................",
"..........................................................................................",
"..........................................................................................",
"..........................................................................................",
"..........................................................................................",
"..........................................................................................",
"..........................................................................................",
"..........................................................................................",
"..........................................................................................",
"..........................................................................................",
"..........................................................................................",
"..........................................................................................",
"..........................................................................................",
"..........................................................................................",
"..........................................................................................",
".........................................................................................."};
