/* XPM */
static char *maximize_toggled_inactive[] = {
/* columns rows colors chars-per-pixel */
"90 58 2 1 ",
"  c green s inactive_text_color",
". c magenta s active_color_2",
/* pixels */
"..........................................................................................",
"..........................................................................................",
"..........................................................................................",
"..........................................................................................",
"..........................................................................................",
"..........................................................................................",
"..........................................................................................",
"..........................................................................................",
"..........................................................................................",
"..........................................................................................",
"..........................................................................................",
"..........................................................................................",
"..........................................................................................",
"..........................................................................................",
"..........................................................................................",
"..........................................................................................",
"..........................................................................................",
"..........................................................................................",
"......................................                ....................................",
"......................................                ....................................",
"......................................  ............  ....................................",
"......................................  ............  ....................................",
"..................................                ..  ....................................",
"..................................                ..  ....................................",
"..................................  ............  ..  ....................................",
"..................................  ............  ..  ....................................",
"..................................  ............  ..  ....................................",
"..................................  ............  ..  ....................................",
"..................................  ............  ..  ....................................",
"..................................  ............  ..  ....................................",
"..................................  ............  ..  ....................................",
"..................................  ............  ..  ....................................",
"..................................  ............      ....................................",
"..................................  ............      ....................................",
"..................................  ............  ........................................",
"..................................  ............  ........................................",
"..................................                ........................................",
"..................................                ........................................",
"..........................................................................................",
"..........................................................................................",
"..........................................................................................",
"..........................................................................................",
"..........................................................................................",
"..........................................................................................",
"..........................................................................................",
"..........................................................................................",
"..........................................................................................",
"..........................................................................................",
"..........................................................................................",
"..........................................................................................",
"..........................................................................................",
"..........................................................................................",
"..........................................................................................",
"..........................................................................................",
"..........................................................................................",
"..........................................................................................",
"..........................................................................................",
".........................................................................................."
};
