/* XPM */
static char * maximize_toggled_pressed_xpm[] = {
"90 58 2 1",
".	c #00FF00 s active_color_1",
"+	c #FF0000 s active_text_color",
"..........................................................................................",
"..........................................................................................",
"..........................................................................................",
"..........................................................................................",
"..........................................................................................",
"..........................................................................................",
"..........................................................................................",
"..........................................................................................",
"..........................................................................................",
"..........................................................................................",
"..........................................................................................",
"..........................................................................................",
"..........................................................................................",
"..........................................................................................",
"..........................................................................................",
"..........................................................................................",
"..........................................................................................",
"..........................................................................................",
"......................................++++++++++++++++....................................",
"......................................++++++++++++++++....................................",
"......................................++............++....................................",
"......................................++............++....................................",
"..................................++++++++++++++++..++....................................",
"..................................++++++++++++++++..++....................................",
"..................................++............++..++....................................",
"..................................++............++..++....................................",
"..................................++............++..++....................................",
"..................................++............++..++....................................",
"..................................++............++..++....................................",
"..................................++............++..++....................................",
"..................................++............++..++....................................",
"..................................++............++..++....................................",
"..................................++............++++++....................................",
"..................................++............++++++....................................",
"..................................++............++........................................",
"..................................++............++........................................",
"..................................++++++++++++++++........................................",
"..................................++++++++++++++++........................................",
"..........................................................................................",
"..........................................................................................",
"..........................................................................................",
"..........................................................................................",
"..........................................................................................",
"..........................................................................................",
"..........................................................................................",
"..........................................................................................",
"..........................................................................................",
"..........................................................................................",
"..........................................................................................",
"..........................................................................................",
"..........................................................................................",
"..........................................................................................",
"..........................................................................................",
"..........................................................................................",
"..........................................................................................",
"..........................................................................................",
"..........................................................................................",
".........................................................................................."};
