/* XPM */
static char *top_left_inactive[] = {
/* columns rows colors chars-per-pixel */
"14 62 3 1 ",
"  c #000000",
". c blue s inactive_shadow_2",
"X c magenta s active_color_2",
/* pixels */
"..............",
"..............",
"..XXXXXXXXXXXX",
"..XXXXXXXXXXXX",
"..XXXXXXXXXXXX",
"..XXXXXXXXXXXX",
"..XXXXXXXXXXXX",
"..XXXXXXXXXXXX",
"..XXXXXXXXXXXX",
"..XXXXXXXXXXXX",
"..XXXXXXXXXXXX",
"..XXXXXXXXXXXX",
"..XXXXXXXXXXXX",
"..XXXXXXXXXXXX",
"..XXXXXXXXXXXX",
"..XXXXXXXXXXXX",
"..XXXXXXXXXXXX",
"..XXXXXXXXXXXX",
"..XXXXXXXXXXXX",
"..XXXXXXXXXXXX",
"..XXXXXXXXXXXX",
"..XXXXXXXXXXXX",
"..XXXXXXXXXXXX",
"..XXXXXXXXXXXX",
"..XXXXXXXXXXXX",
"..XXXXXXXXXXXX",
"..XXXXXXXXXXXX",
"..XXXXXXXXXXXX",
"..XXXXXXXXXXXX",
"..XXXXXXXXXXXX",
"..XXXXXXXXXXXX",
"..XXXXXXXXXXXX",
"..XXXXXXXXXXXX",
"..XXXXXXXXXXXX",
"..XXXXXXXXXXXX",
"..XXXXXXXXXXXX",
"..XXXXXXXXXXXX",
"..XXXXXXXXXXXX",
"..XXXXXXXXXXXX",
"..XXXXXXXXXXXX",
"..XXXXXXXXXXXX",
"..XXXXXXXXXXXX",
"..XXXXXXXXXXXX",
"..XXXXXXXXXXXX",
"..XXXXXXXXXXXX",
"..XXXXXXXXXXXX",
"..XXXXXXXXXXXX",
"..XXXXXXXXXXXX",
"..XXXXXXXXXXXX",
"..XXXXXXXXXXXX",
"..XXXXXXXXXXXX",
"..XXXXXXXXXXXX",
"..XXXXXXXXXXXX",
"..XXXXXXXXXXXX",
"..XXXXXXXXXXXX",
"..XXXXXXXXXXXX",
"..XXXXXXXXXXXX",
"..XXXXXXXXXXXX",
"..XXXXXXXXXXXX",
"..XXXXXXXXXXXX",
"..            ",
"..            "
};
