<?xml version="1.0" encoding="UTF-8" standalone="no"?>
<svg
   xmlns:dc="http://purl.org/dc/elements/1.1/"
   xmlns:cc="http://creativecommons.org/ns#"
   xmlns:rdf="http://www.w3.org/1999/02/22-rdf-syntax-ns#"
   xmlns:svg="http://www.w3.org/2000/svg"
   xmlns="http://www.w3.org/2000/svg"
   version="1.1"
   id="svg2"
   width="8"
   height="8"
   viewBox="0 0 8 8">
  <metadata
     id="metadata8">
    <rdf:RDF>
      <cc:Work
         rdf:about="">
        <dc:format>image/svg+xml</dc:format>
        <dc:type
           rdf:resource="http://purl.org/dc/dcmitype/StillImage" />
        <dc:title></dc:title>
      </cc:Work>
    </rdf:RDF>
  </metadata>
  <defs
     id="defs6" />
  <g
     style="opacity:0.3"
     id="g4520">
    <path
       style="fill:#f4f4f4"
       d="M 0,7.2 C 0,6.76 0.52092826,5.8790717 1.1576184,5.2423816 2.0344428,4.3655572 1.9998776,3.7047788 1.0151177,2.5182157 -0.65414392,0.50687851 0.4741421,-0.68131273 2.475834,0.97994402 c 1.2289371,1.01992718 1.8193949,1.01992718 3.048332,0 C 6.3624573,0.28422405 7.3265826,-0.00675076 7.6666667,0.33333333 8.0067508,0.67341743 7.715776,1.6375427 7.020056,2.475834 c -1.0199272,1.2289371 -1.0199272,1.8193949 0,3.048332 C 8.6813127,7.5258579 7.4931215,8.6541439 5.4817843,6.9848823 4.2952212,6.0001224 3.6344428,5.9655572 2.7576184,6.8423816 1.4206853,8.1793147 0,8.3635545 0,7.2 Z"
       id="path4524" />
    <path
       style="fill:#f1f1f1"
       d="M 0.15,7.05 C 0.5797117,5.7608649 1.9513066,5.5292969 2.075,6.725 2.11625,7.12375 1.61,7.63 0.95,7.85 0.29,8.07 -0.07,7.71 0.15,7.05 Z M 5.5427051,7.069098 C 4.8596349,5.9638674 6.4371128,4.7704461 7.3605198,5.6938532 8.3113054,6.6446388 8.1341071,8 7.059017,8 6.5414763,8 5.859136,7.5810942 5.5427051,7.069098 Z M 3,4 C 3,3.45 3.45,3 4,3 4.55,3 5,3.45 5,4 5,4.55 4.55,5 4,5 3.45,5 3,4.55 3,4 Z M 0.46896279,1.9497807 C -0.44949681,0.46368189 0.28096199,-0.06242392 1.8857231,0.92937299 2.745453,1.4607153 2.8477315,1.9760731 2.175861,2.3913119 1.6051456,2.7440334 0.83704139,2.5453444 0.46896279,1.9497807 Z M 5.5748419,2.1210967 C 5.2649968,1.6197568 5.6839025,0.95153958 6.5057436,0.63616959 7.3275846,0.32079959 8,0.47208879 8,0.9723678 8,2.3279217 6.2229034,3.1696822 5.5748419,2.1210967 Z"
       id="path4522" />
  </g>
</svg>
