<?xml version="1.0" encoding="UTF-8" standalone="no"?>
<svg
   xmlns:dc="http://purl.org/dc/elements/1.1/"
   xmlns:cc="http://creativecommons.org/ns#"
   xmlns:rdf="http://www.w3.org/1999/02/22-rdf-syntax-ns#"
   xmlns:svg="http://www.w3.org/2000/svg"
   xmlns="http://www.w3.org/2000/svg"
   xmlns:sodipodi="http://sodipodi.sourceforge.net/DTD/sodipodi-0.dtd"
   xmlns:inkscape="http://www.inkscape.org/namespaces/inkscape"
   width="44"
   height="44"
   version="1.1"
   viewBox="0 0 5.8208 5.8208"
   id="svg8"
   sodipodi:docname="button.svg"
   inkscape:version="0.92.2 (5c3e80d, 2017-08-06)">
  <metadata
     id="metadata14">
    <rdf:RDF>
      <cc:Work
         rdf:about="">
        <dc:format>image/svg+xml</dc:format>
        <dc:type
           rdf:resource="http://purl.org/dc/dcmitype/StillImage" />
        <dc:title></dc:title>
      </cc:Work>
    </rdf:RDF>
  </metadata>
  <defs
     id="defs12" />
  <sodipodi:namedview
     pagecolor="#ffffff"
     bordercolor="#666666"
     borderopacity="1"
     objecttolerance="10"
     gridtolerance="10"
     guidetolerance="10"
     inkscape:pageopacity="0"
     inkscape:pageshadow="2"
     inkscape:window-width="1198"
     inkscape:window-height="786"
     id="namedview10"
     showgrid="false"
     inkscape:zoom="27.027699"
     inkscape:cx="11"
     inkscape:cy="11"
     inkscape:window-x="0"
     inkscape:window-y="27"
     inkscape:window-maximized="0"
     inkscape:current-layer="g6" />
  <g
     transform="translate(0 -291.18)"
     id="g6">
    <path
       transform="matrix(.26458 0 0 .26458 0 291.18)"
       d="m0 0v22h22v-22h-22zm11 3a8 8 0 0 0-0.67578 0.033203 7.9999 7.9999 0 0 1 0.67578-0.033203zm0.67578 0.033203a7.9999 7.9999 0 0 1 0.42774 0.052734 8 8 0 0 0-0.42774-0.052734zm-1.7793 0.052734a8 8 0 0 0-0.36719 0.056641 7.9999 7.9999 0 0 1 0.36719-0.056641zm2.5742 0.056641a7.9999 7.9999 0 0 1 0.375 0.082031 8 8 0 0 0-0.375-0.082031zm-3.3164 0.082031a8 8 0 0 0-0.41992 0.10742 7.9999 7.9999 0 0 1 0.41992-0.10742zm4.1113 0.10742a7.9999 7.9999 0 0 1 0.3418 0.11523 8 8 0 0 0-0.3418-0.11523zm-4.873 0.11523a8 8 0 0 0-0.39648 0.14258 7.9999 7.9999 0 0 1 0.39648-0.14258zm5.6113 0.14258a7.9999 7.9999 0 0 1 0.39648 0.17969 8 8 0 0 0-0.39648-0.17969zm-6.4043 0.17969a8 8 0 0 0-0.3125 0.15039 7.9999 7.9999 0 0 1 0.3125-0.15039zm7.1133 0.15039a7.9999 7.9999 0 0 1 0.38867 0.2207 8 8 0 0 0-0.38867-0.2207zm-3.7129 0.080078a7 7 0 0 1 7 7 7 7 0 0 1-7 7 7 7 0 0 1-7-7 7 7 0 0 1 7-7zm-4.1016 0.14062a8 8 0 0 0-0.31055 0.19141 7.9999 7.9999 0 0 1 0.31055-0.19141zm8.5137 0.19141a7.9999 7.9999 0 0 1 0.33789 0.24023 8 8 0 0 0-0.33789-0.24023zm-9.1621 0.24023a8 8 0 0 0-0.30859 0.23633 7.9999 7.9999 0 0 1 0.30859-0.23633zm9.8086 0.23633a7.9999 7.9999 0 0 1 0.30859 0.27148 8 8 0 0 0-0.30859-0.27148zm-10.426 0.27148a8 8 0 0 0-0.28711 0.26562 7.9999 7.9999 0 0 1 0.28711-0.26562zm11.021 0.26562a7.9999 7.9999 0 0 1 0.25391 0.27344 8 8 0 0 0-0.25391-0.27344zm-11.574 0.28711a8 8 0 0 0-0.27148 0.30859 7.9999 7.9999 0 0 1 0.27148-0.30859zm12.123 0.32227a7.9999 7.9999 0 0 1 0.20117 0.26562 8 8 0 0 0-0.20117-0.26562zm-12.631 0.29492a8 8 0 0 0-0.24023 0.33789 7.9999 7.9999 0 0 1 0.24023-0.33789zm13.098 0.33984a7.9999 7.9999 0 0 1 0.18945 0.30859 8 8 0 0 0-0.18945-0.30859zm-13.529 0.30859a8 8 0 0 0-0.2207 0.38867 7.9999 7.9999 0 0 1 0.2207-0.38867zm13.939 0.38867a7.9999 7.9999 0 0 1 0.15039 0.3125 8 8 0 0 0-0.15039-0.3125zm-14.311 0.3125a8 8 0 0 0-0.17969 0.39648 7.9999 7.9999 0 0 1 0.17969-0.39648zm14.641 0.39648a7.9999 7.9999 0 0 1 0.14258 0.39648 8 8 0 0 0-0.14258-0.39648zm-14.963 0.39648a8 8 0 0 0-0.11523 0.3418 7.9999 7.9999 0 0 1 0.11523-0.3418zm15.221 0.3418a7.9999 7.9999 0 0 1 0.10742 0.41992 8 8 0 0 0-0.10742-0.41992zm-15.443 0.41992a8 8 0 0 0-0.082031 0.375 7.9999 7.9999 0 0 1 0.082031-0.375zm15.633 0.375a7.9999 7.9999 0 0 1 0.05664 0.36719 8 8 0 0 0-0.05664-0.36719zm-15.771 0.36719a8 8 0 0 0-0.052734 0.42773 7.9999 7.9999 0 0 1 0.052734-0.42773zm15.881 0.42773a7.9999 7.9999 0 0 1 0.033203 0.67578 8 8 0 0 0-0.033203-0.67578zm-15.967 0.67578a8 8 0 0 0 0.033203 0.67578 7.9999 7.9999 0 0 1-0.033203-0.67578zm15.965 0.69922a7.9999 7.9999 0 0 1-0.044922 0.35938 8 8 0 0 0 0.044922-0.35938zm-15.879 0.4043a8 8 0 0 0 0.056641 0.36719 7.9999 7.9999 0 0 1-0.056641-0.36719zm15.771 0.37109a7.9999 7.9999 0 0 1-0.082031 0.37109 8 8 0 0 0 0.082031-0.37109zm-15.633 0.37109a8 8 0 0 0 0.10742 0.41992 7.9999 7.9999 0 0 1-0.10742-0.41992zm15.443 0.41992a7.9999 7.9999 0 0 1-0.11524 0.3418 8 8 0 0 0 0.11524-0.3418zm-15.221 0.3418a8 8 0 0 0 0.14258 0.39648 7.9999 7.9999 0 0 1-0.14258-0.39648zm14.963 0.39648a7.9999 7.9999 0 0 1-0.17969 0.39648 8 8 0 0 0 0.17969-0.39648zm-14.641 0.39648a8 8 0 0 0 0.15039 0.3125 7.9999 7.9999 0 0 1-0.15039-0.3125zm14.311 0.3125a7.9999 7.9999 0 0 1-0.2207 0.38867 8 8 0 0 0 0.2207-0.38867zm-13.939 0.38867a8 8 0 0 0 0.19141 0.31055 7.9999 7.9999 0 0 1-0.19141-0.31055zm13.527 0.31055a7.9999 7.9999 0 0 1-0.24024 0.33789 8 8 0 0 0 0.24024-0.33789zm-13.096 0.33789a8 8 0 0 0 0.23633 0.30859 7.9999 7.9999 0 0 1-0.23633-0.30859zm12.619 0.30859a7.9999 7.9999 0 0 1-0.27148 0.30859 8 8 0 0 0 0.27148-0.30859zm-12.111 0.30859a8 8 0 0 0 0.26562 0.28711 7.9999 7.9999 0 0 1-0.26562-0.28711zm11.574 0.28711a7.9999 7.9999 0 0 1-0.27344 0.25391 8 8 0 0 0 0.27344-0.25391zm-11.021 0.26562a8 8 0 0 0 0.30859 0.27148 7.9999 7.9999 0 0 1-0.30859-0.27148zm10.412 0.2832a7.9999 7.9999 0 0 1-0.26562 0.20117 8 8 0 0 0 0.26562-0.20117zm-9.7949 0.22461a8 8 0 0 0 0.33789 0.24024 7.9999 7.9999 0 0 1-0.33789-0.24024zm9.1602 0.24219a7.9999 7.9999 0 0 1-0.30859 0.18945 8 8 0 0 0 0.30859-0.18945zm-8.5117 0.18945a8 8 0 0 0 0.38867 0.2207 7.9999 7.9999 0 0 1-0.38867-0.2207zm7.8145 0.2207a7.9999 7.9999 0 0 1-0.3125 0.15039 8 8 0 0 0 0.3125-0.15039zm-7.1133 0.15039a8 8 0 0 0 0.39648 0.17969 7.9999 7.9999 0 0 1-0.39648-0.17969zm6.4043 0.17969a7.9999 7.9999 0 0 1-0.39648 0.14258 8 8 0 0 0 0.39648-0.14258zm-5.6113 0.14258a8 8 0 0 0 0.3418 0.11524 7.9999 7.9999 0 0 1-0.3418-0.11524zm4.873 0.11524a7.9999 7.9999 0 0 1-0.41992 0.10742 8 8 0 0 0 0.41992-0.10742zm-4.1113 0.10742a8 8 0 0 0 0.37109 0.082031 7.9999 7.9999 0 0 1-0.37109-0.082031zm3.3164 0.082031a7.9999 7.9999 0 0 1-0.36719 0.05664 8 8 0 0 0 0.36719-0.05664zm-2.5293 0.0625a8 8 0 0 0 0.35937 0.044922 7.9999 7.9999 0 0 1-0.35937-0.044922zm1.7344 0.046875a7.9999 7.9999 0 0 1-0.67578 0.033203 8 8 0 0 0 0.67578-0.033203z"
       style="fill:#3b3a3a;stroke-width:.99999"
       id="path2" />
    <path
       transform="matrix(.26458 0 0 .26458 0 291.18)"
       d="m11 3a8 8 0 0 0-8 8 8 8 0 0 0 8 8 8 8 0 0 0 8-8 8 8 0 0 0-8-8zm-0.001953 0.99609c1.8332-4.536e-4 3.6588 0.75452 4.9551 2.0508s2.0512 3.1219 2.0508 4.9551c4.55e-4 1.8332-0.75452 3.6569-2.0508 4.9531-1.2963 1.2963-3.1219 2.0512-4.9551 2.0508-1.8332 4.54e-4 -3.6569-0.75452-4.9531-2.0508-1.2963-1.2963-2.0512-3.1199-2.0508-4.9531-4.46e-4 -1.8332 0.75452-3.6588 2.0508-4.9551 1.2963-1.2963 3.1199-2.0512 4.9531-2.0508z"
       fill="#000000"
       opacity=".9"
       style="opacity:0.3"
       id="path4" />
  </g>
</svg>
