<?xml version="1.0" encoding="UTF-8" standalone="no"?>
<svg
   xmlns:dc="http://purl.org/dc/elements/1.1/"
   xmlns:cc="http://creativecommons.org/ns#"
   xmlns:rdf="http://www.w3.org/1999/02/22-rdf-syntax-ns#"
   xmlns:svg="http://www.w3.org/2000/svg"
   xmlns="http://www.w3.org/2000/svg"
   xmlns:sodipodi="http://sodipodi.sourceforge.net/DTD/sodipodi-0.dtd"
   xmlns:inkscape="http://www.inkscape.org/namespaces/inkscape"
   width="44"
   height="44"
   version="1.1"
   viewBox="0 0 5.8208 5.8208"
   id="svg12"
   sodipodi:docname="max-pressed.svg"
   inkscape:version="0.92.2 (5c3e80d, 2017-08-06)">
  <metadata
     id="metadata18">
    <rdf:RDF>
      <cc:Work
         rdf:about="">
        <dc:format>image/svg+xml</dc:format>
        <dc:type
           rdf:resource="http://purl.org/dc/dcmitype/StillImage" />
      </cc:Work>
    </rdf:RDF>
  </metadata>
  <defs
     id="defs16" />
  <sodipodi:namedview
     pagecolor="#ffffff"
     bordercolor="#666666"
     borderopacity="1"
     objecttolerance="10"
     gridtolerance="10"
     guidetolerance="10"
     inkscape:pageopacity="0"
     inkscape:pageshadow="2"
     inkscape:window-width="704"
     inkscape:window-height="480"
     id="namedview14"
     showgrid="false"
     inkscape:zoom="10.727273"
     inkscape:cx="11"
     inkscape:cy="11"
     inkscape:window-x="0"
     inkscape:window-y="27"
     inkscape:window-maximized="0"
     inkscape:current-layer="svg12" />
  <path
     d="m0 0v5.8208h5.8208v-5.8208zm2.9104 0.79374a2.1166 2.1166 0 0 0-0.1788 0.0087849 2.1166 2.1166 0 0 1 0.1788-0.0087849zm0.1788 0.008785a2.1166 2.1166 0 0 1 0.11317 0.013952 2.1166 2.1166 0 0 0-0.11317-0.013952zm-0.47077 0.013952a2.1166 2.1166 0 0 0-0.097151 0.014986 2.1166 2.1166 0 0 1 0.097151-0.014986zm0.68108 0.014986a2.1166 2.1166 0 0 1 0.099218 0.021704 2.1166 2.1166 0 0 0-0.099218-0.021704zm-0.87745 0.021704a2.1166 2.1166 0 0 0-0.1111 0.028421 2.1166 2.1166 0 0 1 0.1111-0.028421zm1.0878 0.028421a2.1166 2.1166 0 0 1 0.090433 0.030488 2.1166 2.1166 0 0 0-0.090433-0.030488zm-1.2893 0.030488a2.1166 2.1166 0 0 0-0.1049 0.037724 2.1166 2.1166 0 0 1 0.1049-0.037724zm1.4846 0.037724a2.1166 2.1166 0 0 1 0.1049 0.047542 2.1166 2.1166 0 0 0-0.1049-0.047542zm-1.6944 0.047542a2.1166 2.1166 0 0 0-0.082681 0.03979 2.1166 2.1166 0 0 1 0.082681-0.03979zm1.882 0.03979a2.1166 2.1166 0 0 1 0.10283 0.058393 2.1166 2.1166 0 0 0-0.10283-0.058393zm-0.98236 0.021187a1.8521 1.8521 0 0 1 1.8521 1.8521 1.8521 1.8521 0 0 1-1.8521 1.8521 1.8521 1.8521 0 0 1-1.8521-1.8521 1.8521 1.8521 0 0 1 1.8521-1.8521zm-1.0852 0.037205a2.1166 2.1166 0 0 0-0.082165 0.050643 2.1166 2.1166 0 0 1 0.082165-0.050643zm2.2526 0.050643a2.1166 2.1166 0 0 1 0.089399 0.06356 2.1166 2.1166 0 0 0-0.089399-0.06356zm-2.4241 0.06356a2.1166 2.1166 0 0 0-0.081647 0.062528 2.1166 2.1166 0 0 1 0.081647-0.062528zm2.5952 0.062528a2.1166 2.1166 0 0 1 0.081647 0.071828 2.1166 2.1166 0 0 0-0.081647-0.071828zm-2.7585 0.071829a2.1166 2.1166 0 0 0-0.075963 0.070278 2.1166 2.1166 0 0 1 0.075963-0.070278zm2.9159 0.070278a2.1166 2.1166 0 0 1 0.067179 0.072347 2.1166 2.1166 0 0 0-0.067179-0.072347zm-3.0622 0.075963a2.1166 2.1166 0 0 0-0.071828 0.081647 2.1166 2.1166 0 0 1 0.071828-0.081647zm3.2075 0.085266a2.1166 2.1166 0 0 1 0.053226 0.070278 2.1166 2.1166 0 0 0-0.053226-0.070278zm-3.3419 0.07803a2.1166 2.1166 0 0 0-0.06356 0.089399 2.1166 2.1166 0 0 1 0.06356-0.089399zm3.4655 0.089915a2.1166 2.1166 0 0 1 0.050125 0.081647 2.1166 2.1166 0 0 0-0.050125-0.081647zm-3.5795 0.081647a2.1166 2.1166 0 0 0-0.058393 0.10283 2.1166 2.1166 0 0 1 0.058393-0.10283zm3.688 0.10283a2.1166 2.1166 0 0 1 0.03979 0.082681 2.1166 2.1166 0 0 0-0.03979-0.082681zm-3.7864 0.082681a2.1166 2.1166 0 0 0-0.047542 0.1049 2.1166 2.1166 0 0 1 0.047542-0.1049zm3.8737 0.1049a2.1166 2.1166 0 0 1 0.037724 0.1049 2.1166 2.1166 0 0 0-0.037724-0.1049zm-3.9589 0.1049a2.1166 2.1166 0 0 0-0.030488 0.090433 2.1166 2.1166 0 0 1 0.030488-0.090433zm4.0272 0.090433a2.1166 2.1166 0 0 1 0.028421 0.1111 2.1166 2.1166 0 0 0-0.028421-0.1111zm-4.0859 0.1111a2.1166 2.1166 0 0 0-0.021704 0.099217 2.1166 2.1166 0 0 1 0.021704-0.099217zm4.1362 0.099217a2.1166 2.1166 0 0 1 0.014986 0.097151 2.1166 2.1166 0 0 0-0.014986-0.097151zm-4.1727 0.097152a2.1166 2.1166 0 0 0-0.013952 0.11317 2.1166 2.1166 0 0 1 0.013952-0.11317zm4.2018 0.11317a2.1166 2.1166 0 0 1 0.00878 0.1788 2.1166 2.1166 0 0 0-0.00878-0.1788zm-4.2245 0.1788a2.1166 2.1166 0 0 0 0.008785 0.1788 2.1166 2.1166 0 0 1-0.008785-0.1788zm4.224 0.185a2.1166 2.1166 0 0 1-0.011885 0.095085 2.1166 2.1166 0 0 0 0.011885-0.095085zm-4.2013 0.10697a2.1166 2.1166 0 0 0 0.014986 0.097151 2.1166 2.1166 0 0 1-0.014986-0.097151zm4.1727 0.098183a2.1166 2.1166 0 0 1-0.021704 0.098183 2.1166 2.1166 0 0 0 0.021704-0.098183zm-4.1362 0.098183a2.1166 2.1166 0 0 0 0.028421 0.1111 2.1166 2.1166 0 0 1-0.028421-0.1111zm4.0859 0.1111a2.1166 2.1166 0 0 1-0.03049 0.090433 2.1166 2.1166 0 0 0 0.03049-0.090433zm-4.0272 0.090434a2.1166 2.1166 0 0 0 0.037724 0.1049 2.1166 2.1166 0 0 1-0.037724-0.1049zm3.9589 0.1049a2.1166 2.1166 0 0 1-0.047542 0.1049 2.1166 2.1166 0 0 0 0.047542-0.1049zm-3.8737 0.1049a2.1166 2.1166 0 0 0 0.03979 0.082681 2.1166 2.1166 0 0 1-0.03979-0.082681zm3.7864 0.082681a2.1166 2.1166 0 0 1-0.058393 0.10283 2.1166 2.1166 0 0 0 0.058393-0.10283zm-3.688 0.10283a2.1166 2.1166 0 0 0 0.050643 0.082165 2.1166 2.1166 0 0 1-0.050643-0.082165zm3.579 0.082165a2.1166 2.1166 0 0 1-0.063563 0.089399 2.1166 2.1166 0 0 0 0.063563-0.089399zm-3.4649 0.089399a2.1166 2.1166 0 0 0 0.062528 0.081647 2.1166 2.1166 0 0 1-0.062528-0.081647zm3.3387 0.081647a2.1166 2.1166 0 0 1-0.071828 0.081647 2.1166 2.1166 0 0 0 0.071828-0.081647zm-3.2043 0.081647a2.1166 2.1166 0 0 0 0.070278 0.075964 2.1166 2.1166 0 0 1-0.070278-0.075964zm3.0622 0.075964a2.1166 2.1166 0 0 1-0.072347 0.067179 2.1166 2.1166 0 0 0 0.072347-0.067179zm-2.9159 0.070277a2.1166 2.1166 0 0 0 0.081647 0.071828 2.1166 2.1166 0 0 1-0.081647-0.071828zm2.7548 0.074929a2.1166 2.1166 0 0 1-0.070278 0.053225 2.1166 2.1166 0 0 0 0.070278-0.053225zm-2.5915 0.059427a2.1166 2.1166 0 0 0 0.089399 0.063563 2.1166 2.1166 0 0 1-0.089399-0.063563zm2.4236 0.064079a2.1166 2.1166 0 0 1-0.081647 0.050125 2.1166 2.1166 0 0 0 0.081647-0.050125zm-2.252 0.050125a2.1166 2.1166 0 0 0 0.10283 0.058393 2.1166 2.1166 0 0 1-0.10283-0.058393zm2.0676 0.058393a2.1166 2.1166 0 0 1-0.082681 0.03979 2.1166 2.1166 0 0 0 0.082681-0.03979zm-1.882 0.03979a2.1166 2.1166 0 0 0 0.1049 0.047542 2.1166 2.1166 0 0 1-0.1049-0.047542zm1.6944 0.047542a2.1166 2.1166 0 0 1-0.1049 0.037724 2.1166 2.1166 0 0 0 0.1049-0.037724zm-1.4846 0.037724a2.1166 2.1166 0 0 0 0.090433 0.03049 2.1166 2.1166 0 0 1-0.090433-0.03049zm1.2893 0.03049a2.1166 2.1166 0 0 1-0.1111 0.028421 2.1166 2.1166 0 0 0 0.1111-0.028421zm-1.0878 0.028421a2.1166 2.1166 0 0 0 0.098183 0.021704 2.1166 2.1166 0 0 1-0.098183-0.021704zm0.87745 0.021704a2.1166 2.1166 0 0 1-0.097151 0.014986 2.1166 2.1166 0 0 0 0.097151-0.014986zm-0.6692 0.016536a2.1166 2.1166 0 0 0 0.095082 0.011885 2.1166 2.1166 0 0 1-0.095082-0.011885zm0.45889 0.012401a2.1166 2.1166 0 0 1-0.1788 0.00878 2.1166 2.1166 0 0 0 0.1788-0.00878z"
     style="fill:#3b3a3a;stroke-width:.26458"
     id="path2" />
  <path
     d="m2.9104 0.79374a2.1166 2.1166 0 0 0-2.1166 2.1166 2.1166 2.1166 0 0 0 2.1166 2.1166 2.1166 2.1166 0 0 0 2.1166-2.1166 2.1166 2.1166 0 0 0-2.1166-2.1166zm-5.292e-4 0.26355c0.48503-1.2e-4 0.96805 0.19963 1.311 0.5426 0.34298 0.34297 0.54271 0.82599 0.5426 1.311 1.203e-4 0.48503-0.19963 0.96754-0.5426 1.3105-0.34298 0.34298-0.82599 0.54271-1.311 0.5426-0.48503 1.201e-4 -0.96754-0.19963-1.3105-0.5426-0.34298-0.34298-0.54271-0.82546-0.5426-1.3105-1.18e-4 -0.48503 0.19963-0.96805 0.5426-1.311 0.34298-0.34298 0.82546-0.54271 1.3105-0.5426z"
     style="fill:#000000;opacity:0.3;stroke-width:0.26458"
     id="path4" />
  <path
     d="M 2.2676,1.86 1.96478,2.11941 2.64794,2.91626 1.96478,3.71363 2.2676,3.97098 2.91045,3.22167 3.55279,3.97098 3.85561,3.71363 3.17245,2.91626 3.85561,2.11941 3.55279,1.86 2.91045,2.60982 Z"
     dominant-baseline="auto"
     style="color-rendering:auto;color:#000000;dominant-baseline:auto;font-feature-settings:normal;font-variant-alternates:normal;font-variant-caps:normal;font-variant-ligatures:normal;font-variant-numeric:normal;font-variant-position:normal;image-rendering:auto;isolation:auto;mix-blend-mode:normal;opacity:0;shape-padding:0;shape-rendering:auto;solid-color:#000000;stroke-width:.3974;text-decoration-color:#000000;text-decoration-line:none;text-decoration-style:solid;text-indent:0;text-orientation:mixed;text-transform:none;white-space:normal"
     id="path6" />
  <path
     d="m2.6458 1.8521v0.79374h-0.79374v0.52916h0.79374v0.79374h0.52916v-0.79374h0.79374v-0.52916h-0.79374v-0.79374z"
     style="fill:#000000;opacity:.4;stroke-width:.26458"
     id="path8" />
  <rect
     x="1.8521"
     y="2.64"
     width="2.1167"
     height=".52917"
     style="opacity:0;stroke-width:.3974"
     id="rect10" />
</svg>
