/* XPM */
static char * maximize_active_xpm[] = {
"28 29 3 1",
".	c #FF00FF s active_color_1",
"+	c #FFFFFF s active_text_color",
"@	c None",
"............................",
"............................",
"............................",
"............................",
"............................",
"............................",
".........++++++++++.........",
".........++++++++++.........",
".........+........+.........",
".........+........+.........",
".........+........+.........",
".........+........+.........",
".........+........+.........",
".........++++++++++.........",
"............................",
"............................",
"............................",
"............................",
"............................",
"............................",
"@@@@@@@@@@@@@@@@@@@@@@@@@@@@",
"@@@@@@@@@@@@@@@@@@@@@@@@@@@@",
"@@@@@@@@@@@@@@@@@@@@@@@@@@@@",
"@@@@@@@@@@@@@@@@@@@@@@@@@@@@",
"@@@@@@@@@@@@@@@@@@@@@@@@@@@@",
"@@@@@@@@@@@@@@@@@@@@@@@@@@@@",
"@@@@@@@@@@@@@@@@@@@@@@@@@@@@",
"@@@@@@@@@@@@@@@@@@@@@@@@@@@@",
"@@@@@@@@@@@@@@@@@@@@@@@@@@@@"};
