/* XPM */
static char * maximize_toggled_active_xpm[] = {
"28 29 3 1",
".	c #FF00FF s active_color_2",
"+	c #FFFFFF s inactive_text_color",
"@	c None",
"............................",
"............................",
"............................",
"............................",
"...........++++++++.........",
"..................+.........",
".........++++++++.+.........",
".........++++++++.+.........",
".........+......+.+.........",
".........+......+.+.........",
".........+......+.+.........",
".........+......+.+.........",
".........+......+...........",
".........++++++++...........",
"............................",
"............................",
"............................",
"............................",
"............................",
"............................",
"@@@@@@@@@@@@@@@@@@@@@@@@@@@@",
"@@@@@@@@@@@@@@@@@@@@@@@@@@@@",
"@@@@@@@@@@@@@@@@@@@@@@@@@@@@",
"@@@@@@@@@@@@@@@@@@@@@@@@@@@@",
"@@@@@@@@@@@@@@@@@@@@@@@@@@@@",
"@@@@@@@@@@@@@@@@@@@@@@@@@@@@",
"@@@@@@@@@@@@@@@@@@@@@@@@@@@@",
"@@@@@@@@@@@@@@@@@@@@@@@@@@@@",
"@@@@@@@@@@@@@@@@@@@@@@@@@@@@"};
