/* XPM */
static char * close_active_xpm[] = {
"45 29 3 1",
".	c #FF00FF s active_color_2",
"+	c #FFFFFF",
"#	c NONE",
".............................................",
".............................................",
".............................................",
".............................................",
".............................................",
".............................................",
".............................................",
"..................++....++...................",
"...................++..++....................",
"....................++++.....................",
".....................++......................",
"....................++++.....................",
"...................++..++....................",
"..................++....++...................",
".............................................",
".............................................",
".............................................",
".............................................",
".............................................",
".............................................",
"#############################################",
"#############################################",
"#############################################",
"#############################################",
"#############################################",
"#############################################",
"#############################################",
"#############################################",
"#############################################"};
