/* XPM */
static char * close_active_xpm[] = {
"32 22 3 1",
" 	c None",
".	c #000000",
"+	c #3b3a3a",
".+++++++++++++++++++++++++++++++",
".+++++++++++++++++++++++++++++++",
".+++++++++++++++++++++++++++++++",
".+++++++++++++++++++++++++++++++",
".+++++++++++++++++++++++++++++++",
".+++++++++++++++++++++++++++++++",
".+++++++++++++++++++++++++++++++",
".+++++++++++++++++++++++++++++++",
".+++++++++++++++++++++++++++++++",
".+++++++++++++++++++++++++++++++",
".+++++++++++++++++++++++++++++++",
".+++++++++++++++++++++++++++++++",
".+++++++++++++++++++++++++++++++",
".+++++++++++++++++++++++++++++++",
".+++++++++++++++++++++++++++++++",
".+++++++++++++++++++++++++++++++",
".+++++++++++++++++++++++++++++++",
".+++++++++++++++++++++++++++++++",
".+++++++++++++++++++++++++++++++",
".+++++++++++++++++++++++++++++++",
".+++++++++++++++++++++++++++++++",
".+++++++++++++++++++++++++++++++"};
