/* XPM */
static char * close_active_xpm[] = {
"32 22 3 1",
"#	c #ff00ff s active_color_1",
".	c #000000",
"+	c #323131",
".+++++++++++++++++++++++++++++++",
".+++++++++++++++++++++++++++++++",
".+++++++++++++++++++++++++++++++",
".+++++++++++++++++++++++++++++++",
".+++++++++++++++++++++++++++++++",
".+++++++++++++++++++++++++++++++",
".+++++++++++++++++++++++++++++++",
".+++++++++++++++++++++++++++++++",
".+++++++++++++++++++++++++++++++",
".+++++++++++++++++++++++++++++++",
".+++++++++++++++++++++++++++++++",
".+++++++++++++++++++++++++++++++",
".+++++++++++++++++++++++++++++++",
".+++++++++++++++++++++++++++++++",
".+++++++++++++++++++++++++++++++",
".+++++++++++++++++++++++++++++++",
".+++++++++++++++++++++++++++++++",
".+++++++++++++++++++++++++++++++",
".+++++++++++++++++++++++++++++++",
".++###########################++",
".+++++++++++++++++++++++++++++++",
".+++++++++++++++++++++++++++++++"};
