/* XPM */
static char * maximize_toggled_pressed_xpm[] = {
"32 22 5 1",
" 	c None",
".	c #000000",
"+	c #323131",
"@	c #F1F2F2",
"#	c #ff00ff s active_color_1",
".+++++++++++++++++++++++++++++++",
".+++++++++++++++++++++++++++++++",
".+++++++++++++++++++++++++++++++",
".+++++++++++++++++++++++++++++++",
".+++++++++++++++++++++++++++++++",
".+++++++++++++++++++++++++++++++",
".+++++++++++++++++++++++++++++++",
".+++++++++++@@@@@@@@++++++++++++",
".+++++++++++@@@@@@@@++++++++++++",
".+++++++++++@@++++@@++++++++++++",
".+++++++++++@@++++@@++++++++++++",
".+++++++++++@@++++@@++++++++++++",
".+++++++++++@@++++@@++++++++++++",
".+++++++++++@@@@@@@@++++++++++++",
".+++++++++++@@@@@@@@++++++++++++",
".+++++++++++++++++++++++++++++++",
".+++++++++++++++++++++++++++++++",
".+++++++++++++++++++++++++++++++",
".+++++++++++++++++++++++++++++++",
".+############################++",
".+++++++++++++++++++++++++++++++",
".+++++++++++++++++++++++++++++++"};
