/* XPM */
static char * maximize_toggled_pressed_xpm[] = {
"32 22 5 1",
" 	c None",
".	c #000000",
"+	c #3b3a3a",
"@	c #656666",
"#	c #656666",
".+++++++++++++++++++++++++++++++",
".+++++++++++++++++++++++++++++++",
".+++++++++++++++++++++++++++++++",
".+++++++++++++++++++++++++++++++",
".+++++++++++++++++++++++++++++++",
".+++++++++++++++++++++++++++++++",
".+++++++++++++++++++++++++++++++",
".+++++++++++@@@@@@@@++++++++++++",
".+++++++++++@@@@@@@@++++++++++++",
".+++++++++++@@++++@@++++++++++++",
".+++++++++++@@++++@@++++++++++++",
".+++++++++++@@++++@@++++++++++++",
".+++++++++++@@++++@@++++++++++++",
".+++++++++++@@@@@@@@++++++++++++",
".+++++++++++@@@@@@@@++++++++++++",
".+++++++++++++++++++++++++++++++",
".+++++++++++++++++++++++++++++++",
".+++++++++++++++++++++++++++++++",
".+++++++++++++++++++++++++++++++",
".++###########################++",
".+++++++++++++++++++++++++++++++",
".+++++++++++++++++++++++++++++++"};
