/* XPM */
static char * maximize_active_xpm[] = {
"32 22 3 1",
".	c #000000",
"+	c #3b3a3a",
"@	c #656666",
".+++++++++++++++++++++++++++++++",
".+++++++++++++++++++++++++++++++",
".+++++++++++++++++++++++++++++++",
".+++++++++++++++++++++++++++++++",
".+++++++++++++++++++++++++++++++",
".+++++++++++++++++++++++++++++++",
".+++++++++++++++++++++++++++++++",
".+++++++++++@@@@@@@@++++++++++++",
".+++++++++++@@@@@@@@++++++++++++",
".+++++++++++++++++++++++++++++++",
".+++++++++++++++++++++++++++++++",
".+++++++++++++++++++++++++++++++",
".+++++++++++++++++++++++++++++++",
".+++++++++++++++++++++++++++++++",
".+++++++++++++++++++++++++++++++",
".+++++++++++++++++++++++++++++++",
".+++++++++++++++++++++++++++++++",
".+++++++++++++++++++++++++++++++",
".+++++++++++++++++++++++++++++++",
".+++++++++++++++++++++++++++++++",
".+++++++++++++++++++++++++++++++",
".+++++++++++++++++++++++++++++++"};
