/* XPM */
static char * maximize_active_xpm[] = {
"32 22 4 1",
"#	c #656666",
".	c #000000",
"+	c #3b3a3a",
"@	c #656666",
".+++++++++++++++++++++++++++++++",
".+++++++++++++++++++++++++++++++",
".+++++++++++++++++++++++++++++++",
".+++++++++++++++++++++++++++++++",
".+++++++++++++++++++++++++++++++",
".+++++++++++++++++++++++++++++++",
".+++++++++++++++++++++++++++++++",
".+++++++++++@@@@@@@@++++++++++++",
".+++++++++++@@@@@@@@++++++++++++",
".+++++++++++++++++++++++++++++++",
".+++++++++++++++++++++++++++++++",
".+++++++++++++++++++++++++++++++",
".+++++++++++++++++++++++++++++++",
".+++++++++++++++++++++++++++++++",
".+++++++++++++++++++++++++++++++",
".+++++++++++++++++++++++++++++++",
".+++++++++++++++++++++++++++++++",
".+++++++++++++++++++++++++++++++",
".+++++++++++++++++++++++++++++++",
".++###########################++",
".+++++++++++++++++++++++++++++++",
".+++++++++++++++++++++++++++++++"};
