/* XPM */
static char * maximize_active_xpm[] = {
"32 22 4 1",
"#	c #ff00ff s active_color_1",
".	c #000000",
"+	c #323131",
"@	c #F1F2F2",
".+++++++++++++++++++++++++++++++",
".+++++++++++++++++++++++++++++++",
".+++++++++++++++++++++++++++++++",
".+++++++++++++++++++++++++++++++",
".+++++++++++++++++++++++++++++++",
".+++++++++++++++++++++++++++++++",
".+++++++++++++++++++++++++++++++",
".++++++++++++@@@@@@+++++++++++++",
".++++++++++++@@@@@@+++++++++++++",
".++++++++++++@@@@@@+++++++++++++",
".+++++++++++@@@@@@@@++++++++++++",
".+++++++++++@@@@@@@@++++++++++++",
".++++++++++++++@@+++++++++++++++",
".++++++++++++++@@+++++++++++++++",
".++++++++++++++@@+++++++++++++++",
".+++++++++++++++++++++++++++++++",
".+++++++++++++++++++++++++++++++",
".+++++++++++++++++++++++++++++++",
".+++++++++++++++++++++++++++++++",
".++###########################++",
".+++++++++++++++++++++++++++++++",
".+++++++++++++++++++++++++++++++"};
